<?xml version="1.0" encoding="UTF-8" standalone="no"?>
<!DOCTYPE svg PUBLIC "-//W3C//DTD SVG 1.1//EN" "http://www.w3.org/Graphics/SVG/1.1/DTD/svg11.dtd">
<svg width="100%" height="100%" viewBox="0 0 284 129" version="1.1" xmlns="http://www.w3.org/2000/svg" xmlns:xlink="http://www.w3.org/1999/xlink" xml:space="preserve" xmlns:serif="http://www.serif.com/" style="fill-rule:evenodd;clip-rule:evenodd;stroke-linejoin:round;stroke-miterlimit:2;">
    <g id="Artboard1" transform="matrix(0.994658,0,0,1,-52.2819,-102.098)">
        <rect x="52.563" y="102.098" width="285.265" height="128.308" style="fill:none;"/>
        <g transform="matrix(0.100537,0,0,-0.1,0.283451,345.098)">
            <path d="M907,2269C877,2246 841,2143 819,2020C802,1923 802,1677 819,1580C841,1457 877,1354 907,1331C929,1313 947,1310 1028,1310C1119,1310 1122,1311 1107,1328C1098,1338 1082,1371 1071,1401C1036,1503 1025,1598 1025,1800C1026,2050 1043,2154 1108,2283C1110,2287 1071,2290 1022,2290C947,2290 929,2287 907,2269Z" style="fill:rgb(40,152,189);fill-rule:nonzero;"/>
            <path d="M2772,2283C2838,2151 2854,2055 2854,1800C2854,1545 2838,1449 2772,1318C2770,1313 2808,1310 2857,1310C2954,1310 2979,1320 3004,1369C3030,1418 3059,1554 3072,1679C3090,1860 3063,2091 3007,2221C2983,2279 2958,2290 2857,2290C2808,2290 2770,2287 2772,2283Z" style="fill:rgb(40,152,189);fill-rule:nonzero;"/>
            <path d="M1164,2195C1149,2171 1148,2162 1159,2106C1174,2033 1190,1868 1183,1858C1181,1853 1166,1850 1150,1850C1123,1850 1122,1847 1118,1800L1115,1750L1375,1752L1635,1755L1678,1835C1725,1923 1774,1979 1836,2016C1922,2067 2019,2054 2060,1988C2092,1935 2086,1904 2035,1854C2010,1830 1990,1806 1990,1800C1990,1794 2010,1770 2035,1746C2086,1696 2092,1665 2060,1612C2019,1545 1922,1534 1834,1585C1810,1599 1769,1635 1743,1665C1694,1721 1659,1735 1632,1708C1604,1680 1618,1640 1682,1574C1784,1467 1903,1426 2043,1449C2174,1471 2277,1547 2358,1680L2397,1745L2765,1755L2766,1803C2768,1850 2768,1850 2735,1850C2716,1850 2699,1853 2697,1858C2691,1869 2706,2032 2720,2104C2732,2162 2732,2171 2716,2195C2698,2222 2698,2222 2679,2204C2657,2182 2634,2068 2624,1939L2617,1851L2325,1845L2290,1777C2254,1709 2205,1640 2192,1640C2188,1640 2184,1658 2183,1679C2182,1701 2172,1737 2160,1759L2140,1800L2161,1843C2217,1951 2161,2087 2040,2138C1988,2160 1895,2156 1825,2129C1752,2102 1639,1995 1594,1910L1565,1855L1265,1855L1253,1965C1237,2118 1223,2182 1201,2204C1182,2222 1182,2222 1164,2195Z" style="fill:rgb(40,152,189);fill-rule:nonzero;"/>
            <path d="M665,2150C633,2138 623,2120 598,2035C579,1967 576,1931 576,1800C576,1669 579,1632 599,1563C628,1459 642,1447 731,1442L801,1438L780,1473C711,1590 710,2009 779,2126L799,2160L742,2159C711,2159 676,2155 665,2150Z" style="fill:rgb(40,152,189);fill-rule:nonzero;"/>
            <path d="M3100,2127C3170,2009 3170,1591 3100,1473L3079,1438L3149,1442C3238,1447 3252,1459 3281,1563C3301,1633 3304,1669 3304,1800C3304,1931 3301,1967 3281,2037C3252,2141 3238,2153 3149,2158L3079,2162L3100,2127Z" style="fill:rgb(40,152,189);fill-rule:nonzero;"/>
            <path d="M1177,1615C1173,1579 1165,1523 1159,1491C1148,1438 1148,1429 1164,1405C1182,1378 1182,1378 1201,1396C1219,1414 1240,1506 1254,1628L1261,1680L1183,1680L1177,1615Z" style="fill:rgb(40,152,189);fill-rule:nonzero;"/>
            <path d="M2626,1628C2640,1506 2661,1414 2679,1396C2698,1378 2698,1378 2715,1403C2730,1427 2731,1436 2716,1521C2707,1572 2700,1628 2700,1647C2700,1679 2699,1680 2660,1680L2619,1680L2626,1628Z" style="fill:rgb(40,152,189);fill-rule:nonzero;"/>
        </g>
    </g>
</svg>
